<svg id="Gradient" height="512" viewBox="0 0 512 512" width="512" xmlns="http://www.w3.org/2000/svg" xmlns:xlink="http://www.w3.org/1999/xlink"><linearGradient id="JShine" gradientUnits="userSpaceOnUse" x1="256" x2="256" y1="496" y2="16"><stop offset="0" stop-color="#12c2e9"/><stop offset=".056" stop-color="#19bfe9"/><stop offset=".137" stop-color="#2db6ea"/><stop offset=".235" stop-color="#4da7ea"/><stop offset=".344" stop-color="#7993eb"/><stop offset=".462" stop-color="#b279ed"/><stop offset=".497" stop-color="#c471ed"/><stop offset="1" stop-color="#f64f59"/></linearGradient><path d="m72 496h296a111.991 111.991 0 0 0 48-213.179v-162.821a8 8 0 0 0 -2.343-5.657l-96-96a8 8 0 0 0 -5.657-2.343h-240a40.045 40.045 0 0 0 -40 40v400a40.045 40.045 0 0 0 40 40zm392-112a96 96 0 1 1 -96-96 96.108 96.108 0 0 1 96 96zm-144-340.687 68.687 68.687h-44.687a24.027 24.027 0 0 1 -24-24zm-272 12.687a24.028 24.028 0 0 1 24-24h232v56a40.045 40.045 0 0 0 40 40h56v148.666a111.983 111.983 0 0 0 -89.631 203.334h-238.369a24.028 24.028 0 0 1 -24-24zm120 104h192a8 8 0 0 1 0 16h-192a8 8 0 0 1 0-16zm-88 56a8 8 0 0 1 8-8h160a8 8 0 0 1 0 16h-160a8 8 0 0 1 -8-8zm208 48a8 8 0 0 1 -8 8h-64a8 8 0 0 1 0-16h64a8 8 0 0 1 8 8zm-208 48a8 8 0 0 1 8-8h144a8 8 0 0 1 0 16h-144a8 8 0 0 1 -8-8zm0-144a8 8 0 0 1 8-8h48a8 8 0 0 1 0 16h-48a8 8 0 0 1 -8-8zm288 48a8 8 0 0 1 -8 8h-80a8 8 0 0 1 0-16h80a8 8 0 0 1 8 8zm-288 48a8 8 0 0 1 8-8h96a8 8 0 0 1 0 16h-96a8 8 0 0 1 -8-8zm144 144a8 8 0 0 1 -8 8h-32a8 8 0 0 1 0-16h32a8 8 0 0 1 8 8zm-144 0a8 8 0 0 1 8-8h64a8 8 0 0 1 0 16h-64a8 8 0 0 1 -8-8zm0-48a8 8 0 0 1 8-8h48a8 8 0 0 1 0 16h-48a8 8 0 0 1 -8-8zm0-240a8 8 0 0 1 8-8h96a8 8 0 0 1 0 16h-96a8 8 0 0 1 -8-8zm144 240a8 8 0 0 1 -8 8h-48a8 8 0 0 1 0-16h48a8 8 0 0 1 8 8zm144-40a8 8 0 0 1 8 8v48h48a8 8 0 0 1 0 16h-48v48a8 8 0 0 1 -16 0v-48h-48a8 8 0 0 1 0-16h48v-48a8 8 0 0 1 8-8z" fill="url(#JShine)"/></svg>