<svg xmlns="http://www.w3.org/2000/svg" xmlns:xlink="http://www.w3.org/1999/xlink" id="Layer_1" x="0" y="0" version="1.1" viewBox="0 0 512 512" xml:space="preserve" style="enable-background:new 0 0 512 512"><rect style="fill:#fd7052" width="388.556" height="480.392" x="37.465"/><rect style="fill:#fff" width="301.223" height="394.971" x="81.126" y="40.751"/><rect style="fill:#ff4f18" width="194.278" height="480.392" x="231.737"/><rect style="fill:#d9d8db" width="150.612" height="394.971" x="231.737" y="40.751"/><rect style="fill:#57555c" width="134.792" height="72.098" x="164.342"/><g><rect style="fill:#aeadb3" width="126.443" height="31.347" x="168.521" y="138.125"/><rect style="fill:#aeadb3" width="126.443" height="31.347" x="168.521" y="196.284"/><rect style="fill:#aeadb3" width="126.443" height="31.347" x="168.521" y="254.433"/></g><g><rect style="fill:#8b8892" width="63.216" height="31.347" x="231.737" y="138.125"/><rect style="fill:#8b8892" width="63.216" height="31.347" x="231.737" y="196.284"/><rect style="fill:#8b8892" width="63.216" height="31.347" x="231.737" y="254.433"/></g><rect style="fill:#3c3a41" width="67.396" height="72.098" x="231.737"/><path style="fill:#67bfff" d="M474.535,406.601c0,58.211-47.188,105.399-105.399,105.399c-0.251,0-0.502,0-0.752-0.01	c-28.473-0.188-54.251-11.682-73.101-30.208c-16.927-16.635-28.264-38.933-30.929-63.843c-0.397-3.72-0.616-7.502-0.616-11.337	c0-31.587,13.908-59.925,35.913-79.245c0.24-0.209,0.481-0.418,0.721-0.616c8.579-7.398,18.369-13.427,29.017-17.774	c12.048-4.901,25.203-7.659,38.996-7.743c0.251-0.01,0.502-0.01,0.752-0.01C427.348,301.213,474.535,348.39,474.535,406.601z"/><path style="fill:#08f" d="M474.535,406.601c0,58.211-47.188,105.399-105.399,105.399c-0.251,0-0.502,0-0.752-0.01V301.223	c0.251-0.01,0.502-0.01,0.752-0.01C427.348,301.213,474.535,348.39,474.535,406.601z"/><polygon style="fill:#fff" points="424.6 391.952 424.6 423.299 384.81 423.299 384.81 465.157 353.463 465.157 353.463 423.299 313.673 423.299 313.673 391.952 353.463 391.952 353.463 350.103 384.81 350.103 384.81 391.952"/><polygon style="fill:#d9d8db" points="424.6 391.952 424.6 423.299 384.81 423.299 384.81 465.157 368.384 465.157 368.384 350.103 384.81 350.103 384.81 391.952"/></svg>