<svg xmlns="http://www.w3.org/2000/svg" xmlns:xlink="http://www.w3.org/1999/xlink" id="Capa_1" x="0" y="0" version="1.1" viewBox="0 0 480 480" xml:space="preserve" style="enable-background:new 0 0 480 480"><path style="fill:#bddbff" d="M68,8v464h240V344c-57.438,0-104-46.562-104-104s46.562-104,104-104V8H68z"/><path style="fill:#5eac24" d="M204,240c0,57.438,46.562,104,104,104s104-46.562,104-104s-46.562-104-104-104S204,182.562,204,240z M308,168v72V168z"/><g><path style="fill:#231f20" d="M420,240c-0.091-58.694-45.458-107.372-104-111.592V8c0-4.418-3.582-8-8-8H68c-4.418,0-8,3.582-8,8 v464c0,4.418,3.582,8,8,8h240c4.418,0,8-3.582,8-8V351.592C374.542,347.372,419.909,298.694,420,240z M300,464H76V16h224v112.28 c-0.608,0.048-1.192,0.16-1.792,0.216c-1.696,0.144-3.36,0.376-5.032,0.6c-1.976,0.264-3.944,0.536-5.896,0.904 c-1.656,0.312-3.28,0.688-4.912,1.072c-1.904,0.448-3.792,0.92-5.648,1.456c-1.6,0.472-3.2,0.992-4.752,1.528 c-1.824,0.624-3.624,1.272-5.4,1.984c-1.544,0.616-3.064,1.272-4.576,1.96c-1.728,0.8-3.432,1.6-5.112,2.464 c-1.472,0.76-2.92,1.552-4.36,2.4c-1.6,0.933-3.2,1.909-4.8,2.928c-1.4,0.896-2.768,1.8-4.12,2.76 c-1.528,1.072-3.008,2.2-4.48,3.352c-1.304,1.016-2.592,2.048-3.848,3.12c-1.408,1.208-2.776,2.472-4.128,3.752 c-1.192,1.136-2.4,2.264-3.536,3.456c-1.296,1.344-2.536,2.736-3.768,4.144c-1.08,1.232-2.168,2.456-3.2,3.744 c-1.176,1.464-2.28,2.992-3.384,4.52c-0.952,1.328-1.92,2.632-2.824,4c-1.048,1.6-2.008,3.248-2.976,4.904 c-0.8,1.392-1.664,2.768-2.4,4.2c-0.912,1.72-1.72,3.496-2.544,5.272c-0.672,1.448-1.384,2.864-1.992,4.344 c-0.8,1.872-1.424,3.792-2.096,5.704c-0.512,1.464-1.08,2.896-1.528,4.392c-0.624,2.04-1.104,4.144-1.6,6.232 c-0.352,1.432-0.8,2.832-1.056,4.28c-0.472,2.352-0.8,4.76-1.096,7.16c-0.168,1.248-0.416,2.464-0.544,3.72 c-0.104,1.056-0.104,2.128-0.184,3.2H100c-4.418,0.006-7.995,3.593-7.989,8.011c0.006,4.41,3.579,7.983,7.989,7.989h96.384 c0.08,1.064,0.08,2.136,0.184,3.2c0.128,1.256,0.376,2.472,0.544,3.72c0.32,2.4,0.624,4.8,1.096,7.2 c0.288,1.448,0.704,2.848,1.056,4.28c0.504,2.088,0.984,4.192,1.6,6.232c0.448,1.496,1.016,2.928,1.528,4.392 c0.672,1.912,1.32,3.832,2.096,5.704c0.608,1.48,1.32,2.896,1.992,4.344c0.8,1.776,1.6,3.552,2.544,5.272 c0.76,1.432,1.6,2.808,2.4,4.2c0.968,1.656,1.928,3.304,2.976,4.904c0.904,1.36,1.872,2.664,2.824,4 c1.104,1.528,2.208,3.056,3.384,4.52c1.032,1.288,2.12,2.512,3.2,3.744c1.232,1.408,2.472,2.8,3.768,4.144 c1.144,1.192,2.344,2.32,3.536,3.456c1.352,1.28,2.72,2.544,4.128,3.752c1.256,1.072,2.544,2.104,3.848,3.12 c1.472,1.152,2.952,2.28,4.48,3.352c1.352,0.96,2.72,1.864,4.12,2.76c1.6,1.013,3.2,1.989,4.8,2.928c1.44,0.8,2.888,1.6,4.36,2.4 c1.68,0.864,3.384,1.68,5.112,2.464c1.512,0.688,3.032,1.344,4.576,1.96c1.776,0.712,3.576,1.36,5.4,1.984 c1.6,0.536,3.144,1.056,4.752,1.528c1.856,0.536,3.744,1.008,5.648,1.456c1.6,0.384,3.256,0.76,4.912,1.072 c1.952,0.368,3.92,0.64,5.896,0.904c1.672,0.224,3.336,0.456,5.032,0.6c0.6,0.056,1.184,0.168,1.792,0.216L300,464z M308,336 c-53.019,0-96-42.981-96-96s42.981-96,96-96s96,42.981,96,96C403.943,292.996,360.996,335.943,308,336z"/><path style="fill:#231f20" d="M100,120h176c4.418,0,8-3.582,8-8c0-4.418-3.582-8-8-8H100c-4.418,0-8,3.582-8,8 C92,116.418,95.582,120,100,120z"/><path style="fill:#231f20" d="M276,360H100c-4.418,0-8,3.582-8,8s3.582,8,8,8h176c4.418,0,8-3.582,8-8S280.418,360,276,360z"/><path style="fill:#231f20" d="M380,232h-64v-64c0-4.418-3.582-8-8-8s-8,3.582-8,8v64h-64c-4.418,0-8,3.582-8,8s3.582,8,8,8h64v64 c0,4.418,3.582,8,8,8s8-3.582,8-8v-64h64c4.418,0,8-3.582,8-8S384.418,232,380,232z"/></g></svg>