<svg xmlns="http://www.w3.org/2000/svg" width="512pt" height="512pt" viewBox="-6 0 512 512.001"><path fill="#e3f4ff" d="m437.757812 15.0625v212.535156c0 4.175782-3.390624 7.5625-7.5625 7.5625h-360.71875c-4.175781 0-7.5625-3.386718-7.5625-7.5625v-212.535156c0-4.175781 3.386719-7.5625 7.5625-7.5625h360.71875c4.171876 0 7.5625 3.386719 7.5625 7.5625zm0 0"/><path fill="#bddff4" d="m437.757812 15.0625v212.535156c0 4.175782-3.390624 7.5625-7.5625 7.5625h-22.4375c4.175782 0 7.5625-3.386718 7.5625-7.5625v-212.535156c0-4.175781-3.386718-7.5625-7.5625-7.5625h22.4375c4.171876 0 7.5625 3.386719 7.5625 7.5625zm0 0"/><path fill="#27e6fc" d="m437.757812 15.0625v46.5625h-375.84375v-46.5625c0-4.175781 3.386719-7.5625 7.5625-7.5625h360.71875c4.171876 0 7.5625 3.386719 7.5625 7.5625zm0 0"/><path fill="#06c7f4" d="m437.757812 15.0625v46.5625h-22.4375v-46.5625c0-4.175781-3.386718-7.5625-7.5625-7.5625h22.4375c4.171876 0 7.5625 3.386719 7.5625 7.5625zm0 0"/><path fill="#e3f4ff" d="m463.234375 111.40625v241.355469c0 4.738281-3.84375 8.585937-8.585937 8.585937h-409.625c-4.742188 0-8.589844-3.847656-8.589844-8.585937v-241.355469c0-4.738281 3.847656-8.585938 8.589844-8.585938h409.625c4.742187 0 8.585937 3.847657 8.585937 8.585938zm0 0"/><path fill="#bddff4" d="m463.234375 111.40625v241.355469c0 4.738281-3.84375 8.585937-8.585937 8.585937h-25.480469c4.742187 0 8.589843-3.847656 8.589843-8.585937v-241.355469c0-4.738281-3.847656-8.585938-8.589843-8.585938h25.480469c4.742187 0 8.585937 3.847657 8.585937 8.585938zm0 0"/><path fill="#fdb659" d="m463.234375 111.40625v52.875h-426.800781v-52.875c0-4.738281 3.847656-8.585938 8.589844-8.585938h409.625c4.742187 0 8.585937 3.847657 8.585937 8.585938zm0 0"/><path fill="#fd9e28" d="m463.234375 111.40625v52.875h-25.476563v-52.875c0-4.738281-3.847656-8.585938-8.589843-8.585938h25.480469c4.742187 0 8.585937 3.847657 8.585937 8.585938zm0 0"/><path fill="#e3f4ff" d="m492.171875 220.671875v274.078125c0 5.382812-4.371094 9.753906-9.753906 9.753906h-465.164063c-5.382812 0-9.753906-4.371094-9.753906-9.753906v-274.078125c0-5.382813 4.371094-9.75 9.753906-9.75h465.164063c5.382812 0 9.753906 4.367187 9.753906 9.75zm0 0"/><path fill="#bddff4" d="m492.171875 220.671875v274.078125c0 5.382812-4.371094 9.753906-9.753906 9.753906h-28.933594c5.382813 0 9.75-4.371094 9.75-9.753906v-274.078125c0-5.382813-4.367187-9.75-9.75-9.75h28.933594c5.382812 0 9.753906 4.367187 9.753906 9.75zm0 0"/><path fill="#fc3e81" d="m492.171875 220.671875v60.042969h-484.671875v-60.042969c0-5.382813 4.371094-9.75 9.753906-9.75h465.164063c5.382812 0 9.753906 4.367187 9.753906 9.75zm0 0"/><path fill="#f01054" d="m492.171875 220.671875v60.042969h-28.9375v-60.042969c0-5.382813-4.367187-9.75-9.75-9.75h28.933594c5.382812 0 9.753906 4.367187 9.753906 9.75zm0 0"/><path fill="#fc3e81" d="m127.9375 347.890625c0 15.078125-12.226562 27.304687-27.304688 27.304687-15.082031 0-27.308593-12.226562-27.308593-27.304687 0-15.082031 12.226562-27.308594 27.308593-27.308594 15.078126 0 27.304688 12.226563 27.304688 27.308594zm0 0"/><path fill="#fc3e81" d="m127.9375 434.390625c0 15.082031-12.226562 27.308594-27.304688 27.308594-15.082031 0-27.308593-12.226563-27.308593-27.308594 0-15.078125 12.226562-27.304687 27.308593-27.304687 15.078126 0 27.304688 12.226562 27.304688 27.304687zm0 0"/><path d="m492.171875 432.1875c4.140625 0 7.5-3.355469 7.5-7.5v-204.015625c0-9.511719-7.742187-17.25-17.253906-17.25h-11.683594v-92.015625c0-8.871094-7.214844-16.085938-16.085937-16.085938h-9.390626v-80.257812c0-8.304688-6.757812-15.0625-15.0625-15.0625h-360.71875c-8.308593 0-15.0625 6.757812-15.0625 15.0625v80.257812h-9.394531c-8.871093 0-16.085937 7.214844-16.085937 16.085938v92.015625h-11.679688c-9.515625 0-17.253906 7.742187-17.253906 17.253906v274.074219c0 9.511719 7.738281 17.25 17.253906 17.25h465.164063c9.511719 0 17.253906-7.738281 17.253906-17.25v-37.402344c0-4.140625-3.359375-7.5-7.5-7.5-4.144531 0-7.5 3.359375-7.5 7.5v37.402344c0 1.242188-1.011719 2.25-2.253906 2.25h-465.164063c-1.242187 0-2.253906-1.007812-2.253906-2.25v-206.535156h469.671875v136.472656c0 4.140625 3.355469 7.5 7.5 7.5zm-61.914063-417.125v39.0625h-360.808593l.027343-39.125zm-385.234374 95.257812h144.601562c4.140625 0 7.5-3.359374 7.5-7.5 0-4.144531-3.359375-7.5-7.5-7.5h-120.207031l.019531-26.199218h360.820312v26.199218h-207.972656c-4.140625 0-7.5 3.355469-7.5 7.5 0 4.140626 3.359375 7.5 7.5 7.5h232.363282c.601562 0 1.085937.488282 1.085937 1.085938v45.371094h-411.800781v-45.371094c0-.597656.488281-1.085938 1.089844-1.085938zm-30.023438 162.894532v-52.542969c0-1.238281 1.011719-2.25 2.253906-2.25h266.867188c4.140625 0 7.5-3.355469 7.5-7.5s-3.359375-7.5-7.5-7.5h-240.1875v-31.644531h411.804687v31.644531h-138.957031c-4.144531 0-7.5 3.355469-7.5 7.5s3.355469 7.5 7.5 7.5h165.636719c1.242187 0 2.253906 1.011719 2.253906 2.25v52.542969zm0 0"/><path d="m389.9375 229.785156h-17.554688c-4.140624 0-7.5 3.355469-7.5 7.5 0 4.144532 3.359376 7.5 7.5 7.5h17.554688c4.140625 0 7.5-3.355468 7.5-7.5 0-4.144531-3.359375-7.5-7.5-7.5zm0 0"/><path d="m389.9375 247.988281h-17.554688c-4.140624 0-7.5 3.355469-7.5 7.5s3.359376 7.5 7.5 7.5h17.554688c4.140625 0 7.5-3.355469 7.5-7.5s-3.359375-7.5-7.5-7.5zm0 0"/><path d="m443.0625 233.15625c-2.929688-2.925781-7.679688-2.929688-10.609375.003906l-1.929687 1.929688-1.929688-1.929688c-2.929688-2.933594-7.679688-2.929687-10.605469-.003906-2.929687 2.929688-2.929687 7.679688 0 10.605469l1.929688 1.933593-1.929688 1.933594c-2.929687 2.925782-2.929687 7.675782 0 10.605469 1.460938 1.464844 3.382813 2.195313 5.300781 2.195313 1.921876 0 3.839844-.730469 5.304688-2.195313l1.929688-1.933594 1.929687 1.933594c1.464844 1.464844 3.386719 2.195313 5.304687 2.195313 1.917969 0 3.839844-.730469 5.304688-2.195313 2.925781-2.929687 2.925781-7.679687 0-10.605469l-1.933594-1.933594 1.933594-1.933593c2.925781-2.925781 2.925781-7.675781 0-10.605469zm0 0"/><path d="m398.539062 145.191406c1.464844 1.464844 3.386719 2.195313 5.304688 2.195313s3.839844-.730469 5.304688-2.195313l1.035156-1.035156 1.035156 1.035156c1.460938 1.464844 3.382812 2.195313 5.300781 2.195313s3.839844-.730469 5.304688-2.195313c2.929687-2.929687 2.929687-7.675781 0-10.605468l-1.039063-1.035157 1.039063-1.035156c2.929687-2.929687 2.929687-7.679687 0-10.609375-2.929688-2.925781-7.679688-2.925781-10.605469.003906l-1.035156 1.035156-1.035156-1.035156c-2.929688-2.929687-7.679688-2.929687-10.609376-.003906-2.925781 2.929688-2.925781 7.679688 0 10.609375l1.039063 1.035156-1.039063 1.035157c-2.925781 2.929687-2.925781 7.679687 0 10.605468zm0 0"/><path d="m369.257812 44.921875c1.464844 1.464844 3.386719 2.195313 5.304688 2.195313 1.816406 0 3.625-.664063 5.054688-1.972657 1.429687 1.308594 3.242187 1.972657 5.058593 1.972657 1.917969 0 3.839844-.730469 5.300781-2.195313 2.851563-2.851563 2.921876-7.417969.226563-10.359375 2.691406-2.945312 2.625-7.507812-.226563-10.359375-2.847656-2.847656-7.414062-2.917969-10.359374-.222656-2.941407-2.695313-7.507813-2.625-10.359376.222656-2.847656 2.851563-2.917968 7.417969-.222656 10.359375-2.695312 2.941406-2.625 7.507812.222656 10.359375zm0 0"/><path d="m85.363281 141.050781h72.730469c4.140625 0 7.5-3.359375 7.5-7.5 0-4.144531-3.359375-7.5-7.5-7.5h-72.730469c-4.140625 0-7.5 3.355469-7.5 7.5 0 4.140625 3.359375 7.5 7.5 7.5zm0 0"/><path d="m114.015625 42.0625h72.730469c4.140625 0 7.5-3.355469 7.5-7.5s-3.359375-7.5-7.5-7.5h-72.730469c-4.140625 0-7.5 3.355469-7.5 7.5s3.359375 7.5 7.5 7.5zm0 0"/><path d="m135.0625 239.957031h-72.730469c-4.140625 0-7.5 3.355469-7.5 7.5 0 4.140625 3.359375 7.5 7.5 7.5h72.730469c4.140625 0 7.5-3.359375 7.5-7.5 0-4.144531-3.359375-7.5-7.5-7.5zm0 0"/><path d="m100.632812 313.082031c-19.191406 0-34.808593 15.613281-34.808593 34.808594 0 19.191406 15.617187 34.804687 34.808593 34.804687 19.1875 0 34.804688-15.613281 34.804688-34.804687 0-19.195313-15.613281-34.808594-34.804688-34.808594zm0 54.613281c-10.921874 0-19.808593-8.886718-19.808593-19.808593 0-10.917969 8.886719-19.804688 19.808593-19.804688 10.917969 0 19.804688 8.886719 19.804688 19.804688 0 10.921875-8.886719 19.808593-19.804688 19.808593zm0 0"/><path d="m100.632812 399.585938c-19.191406 0-34.808593 15.613281-34.808593 34.804687 0 19.195313 15.617187 34.808594 34.808593 34.808594 19.1875 0 34.804688-15.613281 34.804688-34.808594 0-19.191406-15.613281-34.804687-34.804688-34.804687zm0 54.613281c-10.921874 0-19.808593-8.886719-19.808593-19.808594 0-10.917969 8.886719-19.804687 19.808593-19.804687 10.917969 0 19.804688 8.886718 19.804688 19.804687 0 10.921875-8.886719 19.808594-19.804688 19.808594zm0 0"/><path d="m167.917969 340.027344h26.332031c4.140625 0 7.5-3.355469 7.5-7.5 0-4.140625-3.359375-7.5-7.5-7.5h-26.332031c-4.140625 0-7.5 3.359375-7.5 7.5 0 4.144531 3.359375 7.5 7.5 7.5zm0 0"/><path d="m376.609375 347.96875h-208.691406c-4.140625 0-7.5 3.355469-7.5 7.5s3.359375 7.5 7.5 7.5h208.691406c4.140625 0 7.5-3.355469 7.5-7.5s-3.355469-7.5-7.5-7.5zm0 0"/><path d="m167.917969 430.421875h26.332031c4.140625 0 7.5-3.355469 7.5-7.5 0-4.140625-3.359375-7.5-7.5-7.5h-26.332031c-4.140625 0-7.5 3.359375-7.5 7.5 0 4.144531 3.359375 7.5 7.5 7.5zm0 0"/><path d="m167.917969 453.363281h208.691406c4.140625 0 7.5-3.359375 7.5-7.5 0-4.144531-3.359375-7.5-7.5-7.5h-208.691406c-4.140625 0-7.5 3.355469-7.5 7.5 0 4.140625 3.359375 7.5 7.5 7.5zm0 0"/></svg>