<?xml version="1.0" encoding="iso-8859-1"?>
<!-- Generator: Adobe Illustrator 19.0.0, SVG Export Plug-In . SVG Version: 6.00 Build 0)  -->
<svg version="1.1" id="Capa_1" xmlns="http://www.w3.org/2000/svg" xmlns:xlink="http://www.w3.org/1999/xlink" x="0px" y="0px"
	 viewBox="0 0 407.51 407.51" style="enable-background:new 0 0 407.51 407.51;" xml:space="preserve">
<g>
	<g>
		<circle style="fill:#00EFD1;" cx="78.367" cy="203.755" r="47.02"/>
		<circle style="fill:#00EFD1;" cx="78.367" cy="360.49" r="47.02"/>
	</g>
	<g>
		<g>
			<path style="fill:#00ACEA;" d="M365.714,182.857H161.959c-5.771,0-10.449-4.678-10.449-10.449
				c0-5.771,4.678-10.449,10.449-10.449h203.755c5.771,0,10.449,4.678,10.449,10.449
				C376.163,178.179,371.485,182.857,365.714,182.857z"/>
			<path style="fill:#00ACEA;" d="M271.673,245.551H161.959c-5.771,0-10.449-4.678-10.449-10.449s4.678-10.449,10.449-10.449
				h109.714c5.771,0,10.449,4.678,10.449,10.449S277.444,245.551,271.673,245.551z"/>
		</g>
		<circle style="fill:#00EFD1;" cx="78.367" cy="47.02" r="47.02"/>
		<g>
			<path style="fill:#00ACEA;" d="M365.714,26.122H161.959c-5.771,0-10.449-4.678-10.449-10.449s4.678-10.449,10.449-10.449h203.755
				c5.771,0,10.449,4.678,10.449,10.449S371.485,26.122,365.714,26.122z"/>
			<path style="fill:#00ACEA;" d="M271.673,88.816H161.959c-5.771,0-10.449-4.678-10.449-10.449c0-5.771,4.678-10.449,10.449-10.449
				h109.714c5.771,0,10.449,4.678,10.449,10.449C282.122,84.138,277.444,88.816,271.673,88.816z"/>
			<path style="fill:#00ACEA;" d="M365.714,339.592H161.959c-5.771,0-10.449-4.678-10.449-10.449s4.678-10.449,10.449-10.449
				h203.755c5.771,0,10.449,4.678,10.449,10.449S371.485,339.592,365.714,339.592z"/>
			<path style="fill:#00ACEA;" d="M271.673,402.286H161.959c-5.771,0-10.449-4.678-10.449-10.449s4.678-10.449,10.449-10.449
				h109.714c5.771,0,10.449,4.678,10.449,10.449S277.444,402.286,271.673,402.286z"/>
		</g>
	</g>
</g>
<g>
</g>
<g>
</g>
<g>
</g>
<g>
</g>
<g>
</g>
<g>
</g>
<g>
</g>
<g>
</g>
<g>
</g>
<g>
</g>
<g>
</g>
<g>
</g>
<g>
</g>
<g>
</g>
<g>
</g>
</svg>
