<svg id="Layer_1" enable-background="new 0 0 64 64" height="512" viewBox="0 0 64 64" width="512" xmlns="http://www.w3.org/2000/svg"><path d="m47 63h-46v-62h36l10 10z" fill="#23a8cc"/><g opacity=".2"><path d="m35 1v10c0 1.1.9 2 2 2h10v-2l-10-10z" fill="#231f20"/></g><path d="m37 1v10h10z" fill="#6a951f"/><path d="m62.7 50.6c-1.5 8.1-9.3 13.4-17.4 12-8.1-1.5-13.4-9.3-12-17.4 1.5-8.1 9.2-13.4 17.3-12 8.2 1.5 13.6 9.2 12.1 17.4z" fill="#fcc325"/><g opacity=".2"><path d="m62.6 44.7c-1.8-8-9.8-13.1-17.8-11.2-8 1.8-13.1 9.8-11.2 17.8.2.9.5 1.8.9 2.7 3.1-4 12-12.4 28.1-9.3z" fill="#fff"/></g><g fill="#043c49"><path d="m49.5 48.1 6.3-6.3c.4-.4.4-1 0-1.4s-1-.4-1.4 0l-6.3 6.3-6.3-6.3c-.4-.4-1-.4-1.4 0s-.4 1 0 1.4l6.3 6.3-6.3 6.3c-.4.4-.4 1 0 1.4s1 .4 1.4 0l6.3-6.3 6.3 6.3c.4.4 1 .4 1.4 0s.4-1 0-1.4z"/><g><path d="m12 10c-.6 0-1 .4-1 1s.4 1 1 1h1c.6 0 1-.4 1-1s-.4-1-1-1z"/><path d="m16 10c-.6 0-1 .4-1 1s.4 1 1 1h1c.6 0 1-.4 1-1s-.4-1-1-1z"/><path d="m8 12h1c.6 0 1-.4 1-1s-.4-1-1-1h-1c-.6 0-1 .4-1 1s.4 1 1 1z"/><path d="m29 41h-1c-.6 0-1 .4-1 1s.4 1 1 1h1c.6 0 1-.4 1-1s-.4-1-1-1z"/><path d="m25 43c.6 0 1-.4 1-1s-.4-1-1-1h-1c-.6 0-1 .4-1 1s.4 1 1 1z"/><path d="m27 56h-19c-.6 0-1 .4-1 1s.4 1 1 1h19c.6 0 1-.4 1-1s-.4-1-1-1z"/><path d="m8 8h13c.6 0 1-.4 1-1s-.4-1-1-1h-13c-.6 0-1 .4-1 1s.4 1 1 1z"/><path d="m8 19h32c.6 0 1-.4 1-1s-.4-1-1-1h-32c-.6 0-1 .4-1 1s.4 1 1 1z"/><path d="m8 23h32c.6 0 1-.4 1-1s-.4-1-1-1h-32c-.6 0-1 .4-1 1s.4 1 1 1z"/><path d="m8 27h32c.6 0 1-.4 1-1s-.4-1-1-1h-32c-.6 0-1 .4-1 1s.4 1 1 1z"/><path d="m8 31h32c.6 0 1-.4 1-1s-.4-1-1-1h-32c-.6 0-1 .4-1 1s.4 1 1 1z"/><path d="m8 35h28c.6 0 1-.4 1-1s-.4-1-1-1h-28c-.6 0-1 .4-1 1s.4 1 1 1z"/><path d="m33 38c0-.6-.4-1-1-1h-24c-.6 0-1 .4-1 1s.4 1 1 1h24c.6 0 1-.4 1-1z"/><path d="m8 43h13c.6 0 1-.4 1-1s-.4-1-1-1h-13c-.6 0-1 .4-1 1s.4 1 1 1z"/><path d="m29 45h-21c-.6 0-1 .4-1 1s.4 1 1 1h21c.6 0 1-.4 1-1s-.4-1-1-1z"/><path d="m29 49h-21c-.6 0-1 .4-1 1s.4 1 1 1h21c.6 0 1-.4 1-1s-.4-1-1-1z"/><path d="m50.9 32.2c-1-.1-2-.2-2.9-.2v-21c0-.3-.1-.6-.3-.8l-10-10c-.2-.2-.4-.2-.7-.2h-36c-.6 0-1 .4-1 1v62c0 .6.4 1 1 1h47.1c3.3 0 6.4-1 9.1-2.9 7.2-5.1 9-15.1 3.9-22.3-2.5-3.5-6.1-5.8-10.2-6.6zm-12.9-28.8 6.6 6.6h-6.6zm-36-1.4h34v9c0 .6.4 1 1 1h9v20c-6.9.9-12.4 6.4-13.6 13.2-1.2 6.7 1.7 13.5 7.6 16.8h-38zm59.8 48.4c-.6 3.7-2.7 6.9-5.7 9s-6.8 3-10.4 2.3c-7.7-1.4-12.7-8.7-11.3-16.3.7-3.6 2.7-6.8 5.7-8.9 2.3-1.6 5.1-2.5 7.9-2.5 7.8 0 14 6.2 14 13.9 0 .8-.1 1.7-.2 2.5z"/></g></g></svg>