<?xml version="1.0" encoding="iso-8859-1"?>
<!-- Generator: Adobe Illustrator 19.0.0, SVG Export Plug-In . SVG Version: 6.00 Build 0)  -->
<svg version="1.1" id="Capa_1" xmlns="http://www.w3.org/2000/svg" xmlns:xlink="http://www.w3.org/1999/xlink" x="0px" y="0px"
	 viewBox="0 0 385.774 385.774" style="enable-background:new 0 0 385.774 385.774;" xml:space="preserve">
<g>
	<g>
		<path style="fill:#00ACEA;" d="M307.826,26.329c21.929,21.733,22.088,57.128,0.356,79.057c-0.118,0.119-0.237,0.238-0.356,0.356
			l-7.314,6.792l0,0l-78.89-78.89l0,0l6.792-6.792c21.733-21.929,57.128-22.088,79.057-0.356c0.119,0.118,0.238,0.237,0.356,0.356
			V26.329z"/>
		<polygon style="fill:#00EFD1;" points="300.511,112.533 136.985,276.06 58.095,197.17 221.622,33.121 221.622,33.643 
			300.511,112.533 		"/>
		<polygon style="fill:#87E680;" points="136.985,276.06 36.152,298.002 58.095,197.17 		"/>
	</g>
	<g>
		<path style="fill:#083863;" d="M315.662,19.537h-0.522c-25.855-25.969-67.866-26.061-93.834-0.207
			c-0.069,0.069-0.138,0.138-0.207,0.207L50.781,189.856c-1.502,1.209-2.597,2.85-3.135,4.702L25.703,295.39
			c-0.599,3.619,0.565,7.308,3.135,9.927c1.929,1.969,4.558,3.095,7.314,3.135h2.09l100.833-21.943
			c1.964-0.327,3.784-1.237,5.224-2.612L315.14,113.056c12.48-12.453,19.443-29.391,19.331-47.02
			C334.759,48.628,327.972,31.849,315.662,19.537z M72.724,197.17L221.622,48.272l64.261,64.261L136.985,260.909L72.724,197.17z
			 M64.364,218.068l51.722,51.722l-66.351,14.629L64.364,218.068z M300.511,97.905L236.25,33.121
			c17.799-17.117,45.94-17.117,63.739,0h0.522c8.494,8.627,13.195,20.286,13.061,32.392
			C313.888,77.652,309.159,89.379,300.511,97.905z"/>
		<path style="fill:#083863;" d="M367.907,385.774H17.867c-5.771,0-10.449-4.678-10.449-10.449s4.678-10.449,10.449-10.449h350.041
			c5.771,0,10.449,4.678,10.449,10.449S373.678,385.774,367.907,385.774z"/>
	</g>
</g>
<g>
</g>
<g>
</g>
<g>
</g>
<g>
</g>
<g>
</g>
<g>
</g>
<g>
</g>
<g>
</g>
<g>
</g>
<g>
</g>
<g>
</g>
<g>
</g>
<g>
</g>
<g>
</g>
<g>
</g>
</svg>
