<svg xmlns="http://www.w3.org/2000/svg" xmlns:xlink="http://www.w3.org/1999/xlink" id="Capa_1" x="0" y="0" version="1.1" viewBox="0 0 480 480" xml:space="preserve" style="enable-background:new 0 0 480 480"><path style="fill:#bddbff" d="M123.917,428.88l22.96-68.88l5.36-16l135.76-135.76l22.64-22.64l10.16-10.16V8h-240v464h240V288.56	l-112,112L123.917,428.88z"/><path style="fill:#7ed63e" d="M287.997,208.24L152.237,344h56.56l73.536-73.536L208.797,344v56.56l112-112l23.76-23.76	l-23.76-23.76L287.997,208.24z"/><g><path style="fill:#898890" d="M378.477,162.96c-12.49-12.46-32.71-12.46-45.2,0l-12.48,12.48l-10.16,10.16l10.16,10.16l46.4,46.4 l22.64-22.64c12.46-12.49,12.46-32.71,0-45.2L378.477,162.96z"/><path style="fill:#898890" d="M123.917,428.88l84.88-28.32V344h-56.56l-5.36,16L123.917,428.88z"/></g><path style="fill:#5eac24" d="M310.637,185.6l-22.64,22.64l32.8,32.8l23.76,23.76l22.64-22.64l-46.4-46.4L310.637,185.6z"/><g><path style="fill:#231f20" d="M224.797,240c0-4.418-3.582-8-8-8h-104c-4.418,0-8,3.582-8,8s3.582,8,8,8h104 C221.215,248,224.797,244.418,224.797,240z"/><path style="fill:#231f20" d="M112.797,120h176c4.418,0,8-3.582,8-8c0-4.418-3.582-8-8-8h-176c-4.418,0-8,3.582-8,8 C104.797,116.418,108.378,120,112.797,120z"/><path style="fill:#231f20" d="M395.493,168.664l-11.36-11.36c-15.15-15.231-39.663-15.66-55.336-0.968V8c0-4.418-3.582-8-8-8h-240 c-4.418,0-8,3.582-8,8v464c0,4.418,3.582,8,8,8h240c4.418,0,8-3.582,8-8V291.872l66.696-66.696 c15.605-15.593,15.616-40.884,0.023-56.489C395.508,168.679,395.5,168.672,395.493,168.664L395.493,168.664z M200.797,394.8 l-64.232,21.424L157.989,352h42.808V394.8z M312.797,307.872V464h-224V16h224v156.128L146.581,338.344 c-0.131,0.154-0.252,0.317-0.36,0.488c-0.246,0.284-0.471,0.586-0.672,0.904c-0.244,0.38-0.453,0.782-0.624,1.2 c-0.08,0.184-0.208,0.328-0.28,0.528l-28.32,84.888c-1.396,4.192,0.87,8.722,5.062,10.118c0.816,0.272,1.67,0.41,2.53,0.41 c0.859,0.003,1.713-0.135,2.528-0.408l84.88-28.32c0.096,0,0.168-0.104,0.264-0.144c0.165-0.058,0.325-0.127,0.48-0.208 c0.35-0.16,0.687-0.347,1.008-0.56c0.308-0.198,0.602-0.417,0.88-0.656c0.172-0.114,0.337-0.236,0.496-0.368L312.797,307.872z M216.797,381.248v-33.936l71.2-71.2c3.124-3.126,3.122-8.192-0.004-11.316s-8.192-3.122-11.316,0.004l-71.2,71.2h-33.928 l116.448-116.448l45.248,45.248L216.797,381.248z M344.557,253.488l-45.248-45.248l11.328-11.328l45.248,45.248L344.557,253.488z M384.181,213.864l-16.984,16.976l-45.24-45.24l16.976-16.984c9.484-9.049,24.404-9.049,33.888,0l11.36,11.36 c9.358,9.35,9.365,24.515,0.015,33.873C384.19,213.854,384.186,213.859,384.181,213.864z"/></g></svg>