<svg xmlns="http://www.w3.org/2000/svg" xmlns:xlink="http://www.w3.org/1999/xlink" id="Capa_1" x="0" y="0" version="1.1" viewBox="0 0 512 512" xml:space="preserve" style="enable-background:new 0 0 512 512"><g><linearGradient id="SVGID_1_" x1="0" x2="512" y1="258" y2="258" gradientTransform="matrix(1 0 0 -1 0 514)" gradientUnits="userSpaceOnUse"><stop offset="0" style="stop-color:#80d8ff"/><stop offset=".16" style="stop-color:#88d1ff"/><stop offset=".413" style="stop-color:#9fbefe"/><stop offset=".725" style="stop-color:#c4a0fd"/><stop offset="1" style="stop-color:#ea80fc"/></linearGradient><path style="fill:url(#SVGID_1_)" d="M492,276H20c-11.046,0-20-8.954-20-20s8.954-20,20-20h472c11.046,0,20,8.954,20,20 C512,267.046,503.046,276,492,276z"/><linearGradient id="SVGID_2_" x1="0" x2="512" y1="418" y2="418" gradientTransform="matrix(1 0 0 -1 0 514)" gradientUnits="userSpaceOnUse"><stop offset="0" style="stop-color:#80d8ff"/><stop offset=".16" style="stop-color:#88d1ff"/><stop offset=".413" style="stop-color:#9fbefe"/><stop offset=".725" style="stop-color:#c4a0fd"/><stop offset="1" style="stop-color:#ea80fc"/></linearGradient><path style="fill:url(#SVGID_2_)" d="M492,116H20c-11.046,0-20-8.954-20-20s8.954-20,20-20h472c11.046,0,20,8.954,20,20 S503.046,116,492,116z"/><linearGradient id="SVGID_3_" x1="0" x2="512" y1="98" y2="98" gradientTransform="matrix(1 0 0 -1 0 514)" gradientUnits="userSpaceOnUse"><stop offset="0" style="stop-color:#80d8ff"/><stop offset=".16" style="stop-color:#88d1ff"/><stop offset=".413" style="stop-color:#9fbefe"/><stop offset=".725" style="stop-color:#c4a0fd"/><stop offset="1" style="stop-color:#ea80fc"/></linearGradient><path style="fill:url(#SVGID_3_)" d="M492,436H20c-11.046,0-20-8.954-20-20s8.954-20,20-20h472c11.046,0,20,8.954,20,20 S503.046,436,492,436z"/></g></svg>