<?xml version="1.0" encoding="iso-8859-1"?>
<!-- Generator: Adobe Illustrator 19.0.0, SVG Export Plug-In . SVG Version: 6.00 Build 0)  -->
<svg version="1.1" id="Capa_1" xmlns="http://www.w3.org/2000/svg" xmlns:xlink="http://www.w3.org/1999/xlink" x="0px" y="0px"
	 viewBox="0 0 512 512" style="enable-background:new 0 0 512 512;" xml:space="preserve">
<g>
	<g transform="translate(1 1)">
		<path style="fill:#F0C419;" d="M442.733,16.067h-102.4c-9.414,0.028-17.039,7.652-17.067,17.067v101.888
			c0.001-4.527-1.796-8.868-4.997-12.069c-3.201-3.201-7.543-4.999-12.069-4.997H203.8c-4.527-0.001-8.868,1.796-12.069,4.997
			c-3.201,3.201-4.999,7.543-4.997,12.069v82.688c-0.027-9.414-7.652-17.039-17.067-17.067h-102.4
			c-9.414,0.028-17.039,7.652-17.067,17.067v233.557h409.6V33.133C459.773,23.719,452.148,16.094,442.733,16.067z"/>
		<polygon style="fill:#00838F;" points="323.267,272.067 323.267,451.267 186.733,451.267 186.733,408.6 		"/>
		<polygon style="fill:#00BCD4;" points="297.667,297.667 297.667,451.267 186.733,451.267 186.733,408.6 		"/>
		<path style="fill:#AD1457;" d="M323.267,135.021v137.045L186.733,408.6V135.021c-0.001-4.527,1.796-8.868,4.997-12.069
			c3.201-3.201,7.543-4.999,12.069-4.997h102.4c4.527-0.001,8.868,1.796,12.069,4.997
			C321.47,126.153,323.268,130.495,323.267,135.021z"/>
		<path style="fill:#00838F;" d="M186.733,211.821v137.045L50.2,485.4V211.821c-0.001-4.527,1.796-8.868,4.997-12.069
			c3.201-3.201,7.543-4.999,12.069-4.997h102.4c4.527-0.001,8.868,1.796,12.069,4.997S186.735,207.295,186.733,211.821z"/>
		<path style="fill:#E91E63;" d="M297.667,135.021v162.645l-95.573,95.573l-15.36,5.803V135.021
			c-0.001-4.527,1.796-8.868,4.997-12.069c3.201-3.201,7.543-4.999,12.069-4.997h76.8c4.527-0.001,8.868,1.796,12.069,4.997
			C295.87,126.153,297.668,130.495,297.667,135.021z"/>
		<path style="fill:#00BCD4;" d="M161.133,212.333v162.645L65.56,470.552l-15.36,5.803V212.333
			c-0.001-4.527,1.796-8.868,4.997-12.069c3.201-3.201,7.543-4.999,12.069-4.997h76.8c4.527-0.001,8.868,1.796,12.069,4.997
			C159.337,203.465,161.135,207.807,161.133,212.333z"/>
		<polygon style="fill:#AD1457;" points="459.8,272.067 459.8,451.267 323.267,451.267 323.267,408.6 		"/>
		<polygon style="fill:#E91E63;" points="434.2,297.667 434.2,451.267 323.267,451.267 323.267,408.6 		"/>
		<path style="fill:#FFB301;" d="M459.8,24.6v238.933L323.267,400.067V24.6c0.027-9.414,7.652-17.039,17.067-17.067h102.4
			C452.148,7.561,459.773,15.186,459.8,24.6z"/>
		<path style="fill:#FEC108;" d="M434.2,26.819v262.315L323.267,400.067V24.6c0.027-9.414,7.652-17.039,17.067-17.067h76.8
			C427.136,8.219,434.735,16.807,434.2,26.819z"/>
		<path style="fill:#607D8B;" d="M24.6,442.733h460.8c9.426,0,17.067,7.641,17.067,17.067v25.6c0,9.426-7.641,17.067-17.067,17.067
			H24.6c-9.426,0-17.067-7.641-17.067-17.067v-25.6C7.533,450.374,15.174,442.733,24.6,442.733z"/>
		<path style="fill:#CFD8DC;" d="M33.133,442.733H459.8c9.426,0,17.067,7.641,17.067,17.067v25.6
			c0,9.426-7.641,17.067-17.067,17.067H33.133c-9.426,0-17.067-7.641-17.067-17.067v-25.6
			C16.067,450.374,23.708,442.733,33.133,442.733z"/>
		<polygon style="fill:#D84315;" points="186.733,272.067 186.733,451.267 50.2,451.267 50.2,408.6 		"/>
		<polygon style="fill:#FF5722;" points="161.133,297.667 161.133,451.267 50.2,451.267 50.2,408.6 		"/>
	</g>
	<path d="M486.4,435.2h-17.067V25.6c-0.015-14.132-11.468-25.585-25.6-25.6h-102.4c-14.132,0.015-25.585,11.468-25.6,25.6v77.827
		c-2.733-1.012-5.62-1.544-8.533-1.572H204.8c-14.132,0.015-25.585,11.468-25.6,25.6v58.693c-2.733-1.012-5.62-1.544-8.533-1.572
		h-102.4c-14.132,0.015-25.585,11.468-25.6,25.6V435.2H25.6C11.468,435.215,0.015,446.668,0,460.8v25.6
		c0.015,14.132,11.468,25.585,25.6,25.6h460.8c14.132-0.015,25.585-11.468,25.6-25.6v-25.6
		C511.985,446.668,500.532,435.215,486.4,435.2z M196.267,435.2v-30.6l119.467-119.467V435.2H196.267z M332.8,404.6l119.467-119.467
		V435.2H332.8V404.6z M332.8,25.6c0.005-4.711,3.822-8.529,8.533-8.533h102.4c4.711,0.005,8.529,3.822,8.533,8.533V261
		L332.8,380.467V25.6z M196.267,127.454c0.005-4.711,3.822-8.529,8.533-8.533h102.4c4.711,0.005,8.529,3.822,8.533,8.533V261
		L196.267,380.466V127.454z M68.267,201.642h102.4c4.711,0.005,8.529,3.822,8.533,8.533V261L59.733,380.467V210.175
		C59.738,205.464,63.556,201.646,68.267,201.642z M59.733,404.6L179.2,285.133V435.2H59.733V404.6z M494.933,486.4
		c-0.005,4.711-3.822,8.529-8.533,8.533H25.6c-4.711-0.005-8.529-3.822-8.533-8.533v-25.6c0.005-4.711,3.822-8.529,8.533-8.533
		h460.8c4.711,0.005,8.529,3.822,8.533,8.533V486.4z"/>
</g>
<g>
</g>
<g>
</g>
<g>
</g>
<g>
</g>
<g>
</g>
<g>
</g>
<g>
</g>
<g>
</g>
<g>
</g>
<g>
</g>
<g>
</g>
<g>
</g>
<g>
</g>
<g>
</g>
<g>
</g>
</svg>
