<svg height="512" viewBox="0 0 512 512" width="512" xmlns="http://www.w3.org/2000/svg"><g id="filled_outline" data-name="filled outline"><circle cx="240" cy="240" fill="#fbb540" r="216"/><path d="m407.3 376.62a215.989 215.989 0 0 1 -334.6 0 168.007 168.007 0 0 1 334.6 0z" fill="#fbb540"/><path d="m407.3 376.62a215.989 215.989 0 0 1 -334.6 0 168.007 168.007 0 0 1 334.6 0z" fill="#0276b4"/><path d="m316.28 242.28a95.989 95.989 0 0 1 -152.56 0 168.293 168.293 0 0 1 152.56 0z" fill="#015078"/><circle cx="240" cy="168" fill="#0276b4" r="96"/><g fill="#015078"><circle cx="208" cy="160" r="16"/><circle cx="280" cy="160" r="16"/><path d="m240 221.229a53.089 53.089 0 0 1 -37.657-15.572 8 8 0 0 1 11.314-11.314 37.294 37.294 0 0 0 52.686 0 8 8 0 0 1 11.314 11.314 53.089 53.089 0 0 1 -37.657 15.572z"/></g><path d="m135.993 399.812a7.968 7.968 0 0 1 -4.52-1.406c-3.746-2.571-7.451-5.313-11.011-8.148a8 8 0 1 1 9.969-12.516c3.264 2.6 6.662 5.115 10.1 7.473a8 8 0 0 1 -4.534 14.6z" fill="#0296e5"/><path d="m232.006 431.829c-.115 0-.232 0-.348-.007a190.762 190.762 0 0 1 -66.791-15.081 8 8 0 0 1 6.266-14.722 174.8 174.8 0 0 0 61.209 13.817 8 8 0 0 1 -.336 15.993z" fill="#0296e5"/><path d="m488 397v-42l-32.619-6.524a83.443 83.443 0 0 0 -3.789-9.144l18.453-27.679-29.7-29.7-27.679 18.453a83.443 83.443 0 0 0 -9.144-3.789l-6.522-32.617h-42l-6.524 32.619a83.443 83.443 0 0 0 -9.144 3.789l-27.679-18.453-29.7 29.7 18.453 27.679a83.443 83.443 0 0 0 -3.789 9.144l-32.617 6.522v42l32.619 6.524a83.443 83.443 0 0 0 3.789 9.144l-18.453 27.679 29.7 29.7 27.679-18.452a83.437 83.437 0 0 0 9.144 3.788l6.522 32.617h42l6.524-32.619a83.437 83.437 0 0 0 9.144-3.788l27.679 18.452 29.7-29.7-18.453-27.679a83.443 83.443 0 0 0 3.789-9.144zm-112 3a24 24 0 1 1 24-24 24 24 0 0 1 -24 24z" fill="#eaeae8"/><path d="m376 440a64 64 0 0 1 0-128 8 8 0 0 1 0 16 48 48 0 1 0 48 48 8 8 0 0 1 16 0 64.072 64.072 0 0 1 -64 64z" fill="#cbcbcb"/><circle cx="208" cy="160" r="16"/><circle cx="280" cy="160" r="16"/><path d="m266.343 194.343a37.294 37.294 0 0 1 -52.686 0 8 8 0 0 0 -11.314 11.314 53.318 53.318 0 0 0 75.314 0 8 8 0 0 0 -11.314-11.314z"/><path d="m140.527 385.215c-3.434-2.358-6.832-4.872-10.1-7.473a8 8 0 1 0 -9.969 12.516c3.56 2.835 7.265 5.577 11.011 8.148a8 8 0 1 0 9.054-13.191z"/><path d="m232.342 415.836a174.8 174.8 0 0 1 -61.209-13.817 8 8 0 0 0 -6.266 14.722 190.762 190.762 0 0 0 66.791 15.081c.116 0 .233.007.348.007a8 8 0 0 0 .336-15.993z"/><path d="m489.569 347.155-28.263-5.655q-.291-.719-.592-1.43l15.986-23.979a8 8 0 0 0 -1-10.1l-17.588-17.588a224.391 224.391 0 0 0 5.888-48.303c.718-59.013-21.922-114.828-63.747-157.165a224.192 224.192 0 1 0 -160.253 381.065h.034a215.293 215.293 0 0 0 48.652-5.609l17.314 17.309a8 8 0 0 0 10.1 1l23.981-15.987q.714.3 1.431.593l5.652 28.262a8 8 0 0 0 7.836 6.432h42a8 8 0 0 0 7.845-6.431l5.652-28.262q.719-.293 1.431-.593l23.981 15.986a8 8 0 0 0 10.1-1l29.691-29.7a8 8 0 0 0 1-10.1l-15.987-23.982q.3-.713.592-1.43l28.263-5.652a8 8 0 0 0 6.432-7.836v-42a8 8 0 0 0 -6.431-7.845zm-457.569-107.155c0-114.691 93.309-208 208-208a207.764 207.764 0 0 1 148.87 62.178c38.8 39.269 59.8 91.022 59.131 145.725a208.5 208.5 0 0 1 -3.456 35.249 8 8 0 0 0 -8.636.147l-23.982 15.987q-.713-.3-1.43-.592l-5.652-28.263a8 8 0 0 0 -7.845-6.431h-42a8 8 0 0 0 -2.71.473 175.607 175.607 0 0 0 -32.776-21.521 104 104 0 1 0 -159.028 0 175.832 175.832 0 0 0 -92.88 121.508 206.5 206.5 0 0 1 -35.606-116.46zm208 16a88 88 0 1 1 88-88 88.1 88.1 0 0 1 -88 88zm35.3 179.909a8 8 0 0 0 .025 8.907 198.905 198.905 0 0 1 -35.291 3.184h-.034a206.7 206.7 0 0 1 -147.08-60.931q-6.262-6.261-11.91-12.96a159.806 159.806 0 0 1 91.371-127.157 103.79 103.79 0 0 0 135.233 0 159.724 159.724 0 0 1 37.712 24.613l-3.826 19.129q-.719.291-1.43.592l-23.979-15.986a8 8 0 0 0 -10.1 1l-29.691 29.7a8 8 0 0 0 -1 10.1l15.987 23.982q-.3.713-.592 1.43l-28.263 5.652a8 8 0 0 0 -6.432 7.836v42a8 8 0 0 0 6.431 7.845l28.263 5.652q.291.719.592 1.43zm204.7-45.468-26.188 5.238a8 8 0 0 0 -5.99 5.225 75.643 75.643 0 0 1 -3.426 8.268 8 8 0 0 0 .541 7.933l14.814 22.222-20.424 20.424-22.222-14.814a8 8 0 0 0 -7.933-.541 75.551 75.551 0 0 1 -8.27 3.427 8 8 0 0 0 -5.223 5.989l-5.238 26.188h-28.882l-5.238-26.188a8 8 0 0 0 -5.223-5.989 75.551 75.551 0 0 1 -8.27-3.427 8 8 0 0 0 -7.933.541l-22.222 14.814-20.424-20.424 14.814-22.222a8 8 0 0 0 .541-7.933 75.643 75.643 0 0 1 -3.426-8.268 8 8 0 0 0 -5.99-5.225l-26.188-5.238v-28.882l26.188-5.238a8 8 0 0 0 5.99-5.225 75.643 75.643 0 0 1 3.426-8.268 8 8 0 0 0 -.541-7.933l-14.814-22.222 20.424-20.424 22.227 14.814a7.993 7.993 0 0 0 7.933.541 75.643 75.643 0 0 1 8.268-3.426 8 8 0 0 0 5.225-5.99l4.908-24.542a7.918 7.918 0 0 0 .863-1.646h28.349l5.238 26.188a8 8 0 0 0 5.225 5.99 75.643 75.643 0 0 1 8.268 3.426 7.993 7.993 0 0 0 7.933-.541l22.222-14.814 20.424 20.424-14.819 22.227a8 8 0 0 0 -.541 7.933 75.643 75.643 0 0 1 3.426 8.268 8 8 0 0 0 5.99 5.225l26.188 5.233z"/><path d="m344 376a32 32 0 1 0 32-32 32.036 32.036 0 0 0 -32 32zm48 0a16 16 0 1 1 -16-16 16.019 16.019 0 0 1 16 16z"/><path d="m432 368a8 8 0 0 0 -8 8 48 48 0 1 1 -48-48 8 8 0 0 0 0-16 64 64 0 1 0 64 64 8 8 0 0 0 -8-8z"/></g></svg>